<?xml version="1.0" encoding="UTF-8" standalone="no"?>
<!-- Created with Inkscape (http://www.inkscape.org/) -->

<svg
   width="16.933357mm"
   height="16.933334mm"
   viewBox="0 0 16.933357 16.933334"
   version="1.1"
   id="svg1010"
   inkscape:version="1.1.2 (0a00cf5339, 2022-02-04)"
   sodipodi:docname="h2database.svg"
   xmlns:inkscape="http://www.inkscape.org/namespaces/inkscape"
   xmlns:sodipodi="http://sodipodi.sourceforge.net/DTD/sodipodi-0.dtd"
   xmlns="http://www.w3.org/2000/svg"
   xmlns:svg="http://www.w3.org/2000/svg">
  <sodipodi:namedview
     id="namedview1012"
     pagecolor="#ffffff"
     bordercolor="#666666"
     borderopacity="1.0"
     inkscape:pageshadow="2"
     inkscape:pageopacity="0.0"
     inkscape:pagecheckerboard="0"
     inkscape:document-units="mm"
     showgrid="false"
     fit-margin-top="0"
     fit-margin-left="0"
     fit-margin-right="0"
     fit-margin-bottom="0"
     inkscape:zoom="0.46057099"
     inkscape:cx="354.99414"
     inkscape:cy="249.69007"
     inkscape:window-width="1366"
     inkscape:window-height="749"
     inkscape:window-x="0"
     inkscape:window-y="0"
     inkscape:window-maximized="1"
     inkscape:current-layer="layer1" />
  <defs
     id="defs1007" />
  <g
     inkscape:label="Calque 1"
     inkscape:groupmode="layer"
     id="layer1"
     transform="translate(13.062412,-6.4695038)">
    <path
       style="fill:black;stroke-width:0.11339"
       d="m -5.809651,23.299952 c -3.3530592,-0.504696 -6.063181,-2.909753 -6.990485,-6.203596 -0.351292,-1.247814 -0.349498,-3.139056 0.0042,-4.395867 0.430231,-1.528892 1.058307,-2.590447 2.221238,-3.7542772 1.722953,-1.7242864 3.5321421,-2.476708 5.9552121,-2.476708 2.42307,0 4.23225644,0.7524216 5.9552125,2.476708 1.5212536,1.5224282 2.2892702,3.1631592 2.4914674,5.3225632 0.076036,0.812036 0.067426,0.864119 -0.1428194,0.864119 -0.194818,0 -0.2334472,-0.104595 -0.2988918,-0.809302 C 3.2799453,13.187415 3.1216186,12.602578 2.6372247,11.559733 1.8302853,9.8224734 0.72021798,8.6632306 -0.99243256,7.7692816 -2.2315504,7.1225 -3.0784657,6.9238432 -4.6195075,6.9184954 c -1.0524781,-0.00365 -1.4671781,0.046147 -2.1535761,0.2586114 -2.3530691,0.7283582 -4.0082314,2.1304594 -5.0397254,4.2691912 -0.644929,1.337218 -0.796266,2.008339 -0.792951,3.516445 0.0031,1.425146 0.250976,2.422787 0.919581,3.701643 1.235855,2.36384 3.7189012,4.002569 6.4385057,4.249205 0.730451,0.06624 0.8548581,0.108262 0.8548581,0.288745 0,0.234355 -0.348734,0.258382 -1.4168278,0.09762 z m 2.4369421,-0.839529 v -0.72954 l 0.9917774,-0.769359 c 1.2059523,-0.935495 2.56504545,-2.228365 2.88194748,-2.741519 0.75990982,-1.230509 0.26814198,-2.404952 -1.0074804,-2.406084 l -0.47746972,-5.29e-4 -0.0325888,1.045966 -0.032591,1.04597 -1.0767881,0.905772 -1.076788,0.905772 -0.056671,-1.9801 -0.056674,-1.980099 -1.7285282,-0.03131 -1.7285282,-0.03131 v 2.044761 2.04476 H -7.9065532 -9.040015 v -4.537241 -4.53735 h 1.1334618 1.1334617 v 1.64479 1.644787 h 1.7568651 1.756865 v -1.644787 -1.64479 h 1.1334591 1.1334618 v 1.701506 1.701506 h 0.81432399 c 2.26972811,0 3.55735201,1.145929 3.34108161,2.973419 -0.1427189,1.205966 -0.9939206,2.366495 -2.73337603,3.726694 l -0.78822285,0.616362 2.01160588,0.031 2.0116033,0.031 -0.03325,0.819759 -0.033248,0.819756 -3.48539322,0.03 -3.48539328,0.03 z"
       id="path1002" />
  </g>
</svg>
