<?xml version="1.0" encoding="UTF-8" standalone="no"?>
<!-- Created with Inkscape (http://www.inkscape.org/) -->

<svg
   width="16.933357mm"
   height="16.933334mm"
   viewBox="0 0 16.933357 16.933334"
   version="1.1"
   id="svg1010"
   inkscape:version="1.1.2 (0a00cf5339, 2022-02-04)"
   sodipodi:docname="H2dbOOo.svg"
   inkscape:export-filename="/home/prrvchr/Documents/Logo/H2dbOOo.png"
   inkscape:export-xdpi="96"
   inkscape:export-ydpi="96"
   xmlns:inkscape="http://www.inkscape.org/namespaces/inkscape"
   xmlns:sodipodi="http://sodipodi.sourceforge.net/DTD/sodipodi-0.dtd"
   xmlns="http://www.w3.org/2000/svg"
   xmlns:svg="http://www.w3.org/2000/svg">
  <sodipodi:namedview
     id="namedview1012"
     pagecolor="#ffffff"
     bordercolor="#666666"
     borderopacity="1.0"
     inkscape:pageshadow="2"
     inkscape:pageopacity="0.0"
     inkscape:pagecheckerboard="0"
     inkscape:document-units="mm"
     showgrid="false"
     fit-margin-top="0"
     fit-margin-left="0"
     fit-margin-right="0"
     fit-margin-bottom="0"
     inkscape:zoom="0.46057099"
     inkscape:cx="339.79561"
     inkscape:cy="249.69006"
     inkscape:window-width="1366"
     inkscape:window-height="749"
     inkscape:window-x="0"
     inkscape:window-y="0"
     inkscape:window-maximized="1"
     inkscape:current-layer="layer1" />
  <defs
     id="defs1007" />
  <g
     inkscape:label="Calque 1"
     inkscape:groupmode="layer"
     id="layer1"
     transform="translate(13.062412,-6.4695038)">
    <path
       style="fill:black;stroke-width:0.056695"
       d="m -5.2026916,19.118061 c -1.6765273,-0.252348 -3.0315864,-1.454876 -3.4952378,-3.101798 -0.1756457,-0.623907 -0.1747487,-1.569528 0.0021,-2.197933 0.2151152,-0.764446 0.5291528,-1.295224 1.1106175,-1.877139 0.8614754,-0.862143 1.7660687,-1.238354 2.977602,-1.238354 1.2115334,0 2.1161254,0.376211 2.9776022,1.238354 0.76062581,0.761214 1.14463359,1.58158 1.24573205,2.661282 0.038018,0.406018 0.033713,0.432059 -0.0714096,0.432059 -0.0974089,0 -0.11672345,-0.0523 -0.1494457,-0.404651 -0.0527687,-0.568088 -0.13193192,-0.860507 -0.37412854,-1.381929 -0.40346911,-0.86863 -0.95850211,-1.448251 -1.81482621,-1.895226 -0.619558,-0.32339 -1.0430151,-0.422719 -1.813535,-0.425393 -0.5262383,-0.0018 -0.733588,0.02307 -1.0767866,0.129306 -1.1765329,0.364179 -2.0041129,1.06523 -2.5198592,2.134595 -0.3224641,0.668609 -0.3981325,1.00417 -0.396475,1.758223 0.00155,0.712573 0.1254878,1.211393 0.4597899,1.850821 0.6179266,1.18192 1.8594481,2.001285 3.2192485,2.124603 0.365225,0.03312 0.4274284,0.05413 0.4274284,0.144372 0,0.117178 -0.1743667,0.129191 -0.7084129,0.04881 z m 1.2184694,-0.419764 v -0.36477 l 0.495888,-0.38468 c 0.6029753,-0.467747 1.282521,-1.114182 1.4409718,-1.370759 0.3799544,-0.615255 0.1340708,-1.202476 -0.5037395,-1.203042 l -0.2387346,-2.65e-4 -0.016294,0.522983 -0.016296,0.522985 -0.5383933,0.452886 -0.5383933,0.452886 -0.028335,-0.99005 -0.028337,-0.990049 -0.864263,-0.01566 -0.8642629,-0.01566 v 1.02238 1.02238 h -0.5667301 -0.5667301 v -2.26862 -2.268675 h 0.5667301 0.5667301 v 0.822395 0.822393 h 0.8784314 0.8784313 v -0.822393 -0.822395 h 0.5667287 0.5667302 v 0.850753 0.850753 h 0.4071614 c 1.1348625,0 1.7786736,0.572964 1.67053855,1.486709 -0.0713594,0.602983 -0.49695965,1.183248 -1.36668615,1.863347 l -0.3941109,0.308181 1.0058016,0.0155 1.00580026,0.0155 -0.016625,0.40988 -0.016624,0.409878 -1.74269416,0.015 -1.7426943,0.015 z"
       id="path1002" />
  </g>
</svg>
