<svg xmlns="http://www.w3.org/2000/svg" width="32" height="32" viewBox="0 0 32 32">
  <g transform="scale(0.5)">
    <path d="m27.412 63.611c-12.673-1.9075-22.916-10.998-26.421-23.447-1.3277-4.7161-1.3209-11.864 0.015874-16.614 1.6261-5.7785 3.9999-9.7905 8.3951-14.189 6.5121-6.517 13.35-9.3608 22.508-9.3608 9.1582 0 15.996 2.8438 22.508 9.3608 5.7498 5.754 8.6525 11.955 9.4167 20.117 0.2874 3.0691 0.25485 3.266-0.53979 3.266-0.73633 0-0.88233-0.39534-1.1297-3.0588-0.39889-4.2943-0.99727-6.5046-2.8281-10.446-3.0499-6.5662-7.2454-10.947-13.719-14.326-4.6832-2.4445-7.8841-3.1954-13.709-3.2156-3.978-0.013795-5.5453 0.17441-8.1396 0.97742-8.8936 2.7529-15.149 8.0523-19.048 16.136-2.4375 5.054-3.0095 7.5904-2.997 13.29 0.011716 5.3862 0.94859 9.157 3.4756 13.99 4.6711 8.934 14.056 15.128 24.334 16.06 2.7608 0.25036 3.231 0.40917 3.231 1.0913 0 0.88577-1.318 0.97656-5.3548 0.36896zm9.2103-3.173v-2.7573l3.7485-2.9078c4.5581-3.5357 9.6945-8.4223 10.892-10.362 2.8721-4.6507 1.0134-9.0898-3.8079-9.0939l-1.8046-2e-3 -0.24635 7.9068-8.1396 6.8466-0.21419-7.4838-0.2142-7.4838-13.066-0.23667v15.456h-8.5678v-34.298h8.5678v12.433h13.28v-12.433h8.5678v12.862h3.0777c8.5784 0 13.445 4.331 12.628 11.238-0.53941 4.5581-3.7565 8.9443-10.331 14.085l-2.9791 2.3296 15.206 0.23433-0.12567 3.0983-0.12567 3.0983-26.346 0.22677z" stroke-width=".42856"/>
  </g>
</svg>
